<svg id="visual" viewBox="0 0 960 300" width="960" height="300" xmlns="http://www.w3.org/2000/svg"
    xmlns:xlink="http://www.w3.org/1999/xlink" version="1.1">
    <rect x="0" y="0" width="960" height="300" fill="#060c20"></rect>
    <g transform="translate(470.3081826754153 146.7169421683679)">
        <path
            d="M53.5 -94.7C69.7 -83.3 83.3 -69.7 96.2 -53.5C109 -37.3 121 -18.7 126.5 3.2C132 25 130.9 50 117.4 64.9C103.8 79.7 77.6 84.5 56 95C34.3 105.5 17.2 121.7 0.8 120.4C-15.6 119.1 -31.3 100.1 -52.3 89.3C-73.4 78.5 -99.9 75.7 -107.6 62.2C-115.3 48.7 -104.1 24.3 -98.7 3.2C-93.2 -18 -93.4 -36 -86.5 -51C-79.7 -66 -65.8 -78 -50.3 -89.7C-34.7 -101.4 -17.3 -112.7 0.7 -113.8C18.7 -115 37.3 -106 53.5 -94.7"
            fill="#006e56"></path>
    </g>
</svg>