<svg id="visual" viewBox="0 0 960 300" width="960" height="300" xmlns="http://www.w3.org/2000/svg"
    xmlns:xlink="http://www.w3.org/1999/xlink" version="1.1">
    <g transform="translate(487.90760498493216 146.7285354245157)">
        <path
            d="M51.4 -85.3C69.4 -78.6 88.8 -70.5 100.5 -56.1C112.2 -41.7 116.1 -20.8 114.5 -0.9C112.9 19 105.8 38 96.6 56.6C87.3 75.2 75.9 93.5 59.5 101.1C43 108.8 21.5 105.9 1.1 104C-19.3 102.2 -38.7 101.3 -52.2 92C-65.7 82.6 -73.5 64.7 -86.5 48C-99.5 31.3 -117.7 15.6 -125.9 -4.7C-134 -25 -131.9 -50 -118.5 -66C-105.1 -82 -80.3 -89.1 -58.7 -93.8C-37 -98.4 -18.5 -100.7 -0.9 -99.1C16.7 -97.5 33.3 -92.1 51.4 -85.3z"
            fill="#006e56" id='blob1'></path>
    </g>
    <g transform="translate(470.3081826754153 146.7169421683679)" style="visibility: hidden">
        <path
            d="M53.5 -94.7C69.7 -83.3 83.3 -69.7 96.2 -53.5C109 -37.3 121 -18.7 126.5 3.2C132 25 130.9 50 117.4 64.9C103.8 79.7 77.6 84.5 56 95C34.3 105.5 17.2 121.7 0.8 120.4C-15.6 119.1 -31.3 100.1 -52.3 89.3C-73.4 78.5 -99.9 75.7 -107.6 62.2C-115.3 48.7 -104.1 24.3 -98.7 3.2C-93.2 -18 -93.4 -36 -86.5 -51C-79.7 -66 -65.8 -78 -50.3 -89.7C-34.7 -101.4 -17.3 -112.7 0.7 -113.8C18.7 -115 37.3 -106 53.5 -94.7z"
            fill="#006e56" id='blob2'></path>
    </g>
</svg>