<svg id="visual" viewBox="0 0 900 600" width="900" height="600" xmlns="http://www.w3.org/2000/svg" xmlns:xlink="http://www.w3.org/1999/xlink" version="1.1"><rect x="0" y="0" width="900" height="600" fill="#ffffff"></rect><path d="M0 539L10.7 532.3C21.3 525.7 42.7 512.3 64.2 503.3C85.7 494.3 107.3 489.7 128.8 497C150.3 504.3 171.7 523.7 193 530C214.3 536.3 235.7 529.7 257 521.3C278.3 513 299.7 503 321.2 488.3C342.7 473.7 364.3 454.3 385.8 455C407.3 455.7 428.7 476.3 450 486.2C471.3 496 492.7 495 514.2 492.8C535.7 490.7 557.3 487.3 578.8 487C600.3 486.7 621.7 489.3 643 495.2C664.3 501 685.7 510 707 509.3C728.3 508.7 749.7 498.3 771.2 502.8C792.7 507.3 814.3 526.7 835.8 535.7C857.3 544.7 878.7 543.3 889.3 542.7L900 542L900 601L889.3 601C878.7 601 857.3 601 835.8 601C814.3 601 792.7 601 771.2 601C749.7 601 728.3 601 707 601C685.7 601 664.3 601 643 601C621.7 601 600.3 601 578.8 601C557.3 601 535.7 601 514.2 601C492.7 601 471.3 601 450 601C428.7 601 407.3 601 385.8 601C364.3 601 342.7 601 321.2 601C299.7 601 278.3 601 257 601C235.7 601 214.3 601 193 601C171.7 601 150.3 601 128.8 601C107.3 601 85.7 601 64.2 601C42.7 601 21.3 601 10.7 601L0 601Z" fill="#C62368" stroke-linecap="round" stroke-linejoin="miter"></path></svg>