<svg id="visual" viewBox="0 0 1080 300" width="1080" height="300" xmlns="http://www.w3.org/2000/svg" xmlns:xlink="http://www.w3.org/1999/xlink" version="1.1"><rect x="0" y="0" width="1080" height="300" fill="#060c20"></rect><path d="M0 123L22.5 122C45 121 90 119 135 115.3C180 111.7 225 106.3 270 105C315 103.7 360 106.3 405 113.7C450 121 495 133 540 134.2C585 135.3 630 125.7 675 120.5C720 115.3 765 114.7 810 113.2C855 111.7 900 109.3 945 113.5C990 117.7 1035 128.3 1057.5 133.7L1080 139L1080 301L1057.5 301C1035 301 990 301 945 301C900 301 855 301 810 301C765 301 720 301 675 301C630 301 585 301 540 301C495 301 450 301 405 301C360 301 315 301 270 301C225 301 180 301 135 301C90 301 45 301 22.5 301L0 301Z" fill="#009473"></path><path d="M0 124L22.5 130C45 136 90 148 135 151.7C180 155.3 225 150.7 270 149.8C315 149 360 152 405 148.2C450 144.3 495 133.7 540 129.3C585 125 630 127 675 129.8C720 132.7 765 136.3 810 134.8C855 133.3 900 126.7 945 129.2C990 131.7 1035 143.3 1057.5 149.2L1080 155L1080 301L1057.5 301C1035 301 990 301 945 301C900 301 855 301 810 301C765 301 720 301 675 301C630 301 585 301 540 301C495 301 450 301 405 301C360 301 315 301 270 301C225 301 180 301 135 301C90 301 45 301 22.5 301L0 301Z" fill="#0097a2"></path><path d="M0 166L22.5 168.7C45 171.3 90 176.7 135 174.3C180 172 225 162 270 156.8C315 151.7 360 151.3 405 156.8C450 162.3 495 173.7 540 180.8C585 188 630 191 675 185.2C720 179.3 765 164.7 810 162.7C855 160.7 900 171.3 945 170.8C990 170.3 1035 158.7 1057.5 152.8L1080 147L1080 301L1057.5 301C1035 301 990 301 945 301C900 301 855 301 810 301C765 301 720 301 675 301C630 301 585 301 540 301C495 301 450 301 405 301C360 301 315 301 270 301C225 301 180 301 135 301C90 301 45 301 22.5 301L0 301Z" fill="#0094c7"></path><path d="M0 188L22.5 194.2C45 200.3 90 212.7 135 218.7C180 224.7 225 224.3 270 222.5C315 220.7 360 217.3 405 216.3C450 215.3 495 216.7 540 212.5C585 208.3 630 198.7 675 192.7C720 186.7 765 184.3 810 186C855 187.7 900 193.3 945 199.2C990 205 1035 211 1057.5 214L1080 217L1080 301L1057.5 301C1035 301 990 301 945 301C900 301 855 301 810 301C765 301 720 301 675 301C630 301 585 301 540 301C495 301 450 301 405 301C360 301 315 301 270 301C225 301 180 301 135 301C90 301 45 301 22.5 301L0 301Z" fill="#008bde"></path><path d="M0 236L22.5 237.5C45 239 90 242 135 241.3C180 240.7 225 236.3 270 230.8C315 225.3 360 218.7 405 216.5C450 214.3 495 216.7 540 217.7C585 218.7 630 218.3 675 218C720 217.7 765 217.3 810 223C855 228.7 900 240.3 945 243.3C990 246.3 1035 240.7 1057.5 237.8L1080 235L1080 301L1057.5 301C1035 301 990 301 945 301C900 301 855 301 810 301C765 301 720 301 675 301C630 301 585 301 540 301C495 301 450 301 405 301C360 301 315 301 270 301C225 301 180 301 135 301C90 301 45 301 22.5 301L0 301Z" fill="#007cf3"></path><path d="M0 265L22.5 262.7C45 260.3 90 255.7 135 258C180 260.3 225 269.7 270 269C315 268.3 360 257.7 405 254.2C450 250.7 495 254.3 540 258C585 261.7 630 265.3 675 265.8C720 266.3 765 263.7 810 262.7C855 261.7 900 262.3 945 260C990 257.7 1035 252.3 1057.5 249.7L1080 247L1080 301L1057.5 301C1035 301 990 301 945 301C900 301 855 301 810 301C765 301 720 301 675 301C630 301 585 301 540 301C495 301 450 301 405 301C360 301 315 301 270 301C225 301 180 301 135 301C90 301 45 301 22.5 301L0 301Z" fill="#0066ff"></path></svg>