<svg id="visual" viewBox="0 0 2160 340" width="2160" height="340" xmlns="http://www.w3.org/2000/svg" xmlns:xlink="http://www.w3.org/1999/xlink" version="1.1"><rect x="0" y="0" width="2160" height="340" fill="#060c20"></rect><path d="M0 89L45 87.8C90 86.7 180 84.3 270 79.3C360 74.3 450 66.7 540 64.7C630 62.7 720 66.3 810 76.7C900 87 990 104 1080 105.7C1170 107.3 1260 93.7 1350 86.3C1440 79 1530 78 1620 75.8C1710 73.7 1800 70.3 1890 76.3C1980 82.3 2070 97.7 2115 105.3L2160 113L2160 341L2115 341C2070 341 1980 341 1890 341C1800 341 1710 341 1620 341C1530 341 1440 341 1350 341C1260 341 1170 341 1080 341C990 341 900 341 810 341C720 341 630 341 540 341C450 341 360 341 270 341C180 341 90 341 45 341L0 341Z" fill="#009473"></path><path d="M0 90L45 98.7C90 107.3 180 124.7 270 130C360 135.3 450 128.7 540 127.5C630 126.3 720 130.7 810 125.3C900 120 990 105 1080 99C1170 93 1260 96 1350 99.8C1440 103.7 1530 108.3 1620 106.2C1710 104 1800 95 1890 98.7C1980 102.3 2070 118.7 2115 126.8L2160 135L2160 341L2115 341C2070 341 1980 341 1890 341C1800 341 1710 341 1620 341C1530 341 1440 341 1350 341C1260 341 1170 341 1080 341C990 341 900 341 810 341C720 341 630 341 540 341C450 341 360 341 270 341C180 341 90 341 45 341L0 341Z" fill="#0097a2"></path><path d="M0 151L45 154.7C90 158.3 180 165.7 270 162.3C360 159 450 145 540 137.7C630 130.3 720 129.7 810 137.5C900 145.3 990 161.7 1080 171.8C1170 182 1260 186 1350 177.5C1440 169 1530 148 1620 145.2C1710 142.3 1800 157.7 1890 157.2C1980 156.7 2070 140.3 2115 132.2L2160 124L2160 341L2115 341C2070 341 1980 341 1890 341C1800 341 1710 341 1620 341C1530 341 1440 341 1350 341C1260 341 1170 341 1080 341C990 341 900 341 810 341C720 341 630 341 540 341C450 341 360 341 270 341C180 341 90 341 45 341L0 341Z" fill="#0094c7"></path><path d="M0 181L45 189.8C90 198.7 180 216.3 270 224.8C360 233.3 450 232.7 540 230C630 227.3 720 222.7 810 221.3C900 220 990 222 1080 216.2C1170 210.3 1260 196.7 1350 188.2C1440 179.7 1530 176.3 1620 178.7C1710 181 1800 189 1890 197.2C1980 205.3 2070 213.7 2115 217.8L2160 222L2160 341L2115 341C2070 341 1980 341 1890 341C1800 341 1710 341 1620 341C1530 341 1440 341 1350 341C1260 341 1170 341 1080 341C990 341 900 341 810 341C720 341 630 341 540 341C450 341 360 341 270 341C180 341 90 341 45 341L0 341Z" fill="#008bde"></path><path d="M0 250L45 252C90 254 180 258 270 257C360 256 450 250 540 242.3C630 234.7 720 225.3 810 222.2C900 219 990 222 1080 223.5C1170 225 1260 225 1350 224.5C1440 224 1530 223 1620 231C1710 239 1800 256 1890 260.5C1980 265 2070 257 2115 253L2160 249L2160 341L2115 341C2070 341 1980 341 1890 341C1800 341 1710 341 1620 341C1530 341 1440 341 1350 341C1260 341 1170 341 1080 341C990 341 900 341 810 341C720 341 630 341 540 341C450 341 360 341 270 341C180 341 90 341 45 341L0 341Z" fill="#007cf3"></path><path d="M0 291L45 287.7C90 284.3 180 277.7 270 281C360 284.3 450 297.7 540 296.7C630 295.7 720 280.3 810 275.3C900 270.3 990 275.7 1080 280.8C1170 286 1260 291 1350 291.7C1440 292.3 1530 288.7 1620 287.3C1710 286 1800 287 1890 283.8C1980 280.7 2070 273.3 2115 269.7L2160 266L2160 341L2115 341C2070 341 1980 341 1890 341C1800 341 1710 341 1620 341C1530 341 1440 341 1350 341C1260 341 1170 341 1080 341C990 341 900 341 810 341C720 341 630 341 540 341C450 341 360 341 270 341C180 341 90 341 45 341L0 341Z" fill="#0066ff"></path></svg>